<svg width="30" height="30" viewBox="0 0 30 30" fill="none" xmlns="http://www.w3.org/2000/svg">
<path d="M6 1.32C9.15986 1.10667 11.952 1 14.3763 1C21.1047 1 24.4688 3.2 24.4688 7.6C24.4688 9.25333 23.9785 10.68 22.9978 11.88C22.0172 13.0533 20.4509 13.8533 18.2989 14.28C20.3692 14.52 22.0036 15.1333 23.2022 16.12C24.4007 17.1067 25 18.8267 25 21.28C25 26.4267 21.6358 29 14.9075 29H6V1.32ZM9.3914 28.6H14.9075C17.3319 28.6 19.048 27.9867 20.0559 26.76C21.091 25.5067 21.6086 23.6 21.6086 21.04C21.6086 18.48 21.091 16.7733 20.0559 15.92C19.0208 15.0667 17.4817 14.6133 15.4387 14.56H9.3914V28.6ZM14.3763 1.4C12.7964 1.4 11.1348 1.49333 9.3914 1.68V14.16H15.4387C19.2796 14 21.2 11.84 21.2 7.68C21.2 5.65333 20.628 4.10667 19.4839 3.04C18.3398 1.94667 16.6373 1.4 14.3763 1.4Z" fill="white"/>
</svg>
