<svg width="30" height="30" viewBox="0 0 30 30" fill="none" xmlns="http://www.w3.org/2000/svg">
<g clip-path="url(#clip0_176_426)">
<path d="M15 0C23.2875 0 30 6.7125 30 15C29.9992 18.1429 29.0128 21.2064 27.1797 23.7593C25.3466 26.3122 22.759 28.226 19.7813 29.2313C19.0313 29.3813 18.75 28.9125 18.75 28.5187C18.75 28.0125 18.7688 26.4 18.7688 24.3938C18.7688 22.9875 18.3 22.0875 17.7563 21.6187C21.0938 21.2437 24.6 19.9688 24.6 14.2125C24.6 12.5625 24.0188 11.2312 23.0625 10.1812C23.2125 9.80625 23.7375 8.26875 22.9125 6.20625C22.9125 6.20625 21.6563 5.79375 18.7875 7.74375C17.5875 7.40625 16.3125 7.2375 15.0375 7.2375C13.7625 7.2375 12.4875 7.40625 11.2875 7.74375C8.41875 5.8125 7.1625 6.20625 7.1625 6.20625C6.3375 8.26875 6.8625 9.80625 7.0125 10.1812C6.05625 11.2312 5.475 12.5813 5.475 14.2125C5.475 19.95 8.9625 21.2437 12.3 21.6187C11.8688 21.9937 11.475 22.65 11.3438 23.625C10.4813 24.0188 8.325 24.6562 6.975 22.3875C6.69375 21.9375 5.85 20.8312 4.66875 20.85C3.4125 20.8687 4.1625 21.5625 4.6875 21.8438C5.325 22.2 6.05625 23.5312 6.225 23.9625C6.525 24.8062 7.5 26.4188 11.2688 25.725C11.2688 26.9813 11.2875 28.1625 11.2875 28.5187C11.2875 28.9125 11.0063 29.3625 10.2563 29.2313C7.2687 28.2368 4.67013 26.3269 2.82917 23.7724C0.988213 21.218 -0.0016509 18.1487 2.06684e-06 15C2.06684e-06 6.7125 6.7125 0 15 0Z" fill="white"/>
</g>
<defs>
<clipPath id="clip0_176_426">
<rect width="30" height="30" fill="white"/>
</clipPath>
</defs>
</svg>
